<svg xmlns="http://www.w3.org/2000/svg" version="1.1" xmlns:xlink="http://www.w3.org/1999/xlink" xmlns:svgjs="http://svgjs.com/svgjs" width="1920" height="1080" preserveAspectRatio="none" viewBox="0 0 1920 1080"><g mask="url(&quot;#SvgjsMask1449&quot;)" fill="none"><rect width="1920" height="1080" x="0" y="0" fill="url(#SvgjsRadialGradient1450)"></rect><path d="M277.57591573120635 568.836092625068L110.85314998171981 514.6645822226349 223.4044053287732 735.5588583745546z" fill="rgba(28, 83, 142, 0.4)" class="triangle-float1"></path><path d="M433.0164266241397 1053.6607160756248L598.9420145247838 869.7344867510224 387.95450480005 821.024182030786z" fill="rgba(28, 83, 142, 0.4)" class="triangle-float2"></path><path d="M961.779,655.834C1023.124,650.978,1076.154,616.655,1107.197,563.522C1138.55,509.858,1145.249,445.298,1117.182,389.844C1086.122,328.477,1030.539,274.569,961.779,276.21C894.912,277.806,853.56,339.875,818.716,396.968C781.632,457.731,735.712,527.901,770.144,590.205C805.148,653.544,889.637,661.545,961.779,655.834" fill="rgba(28, 83, 142, 0.4)" class="triangle-float3"></path><path d="M335.077,460.309C426.033,460.389,521.771,435.045,567.507,356.424C613.444,277.457,588.623,181.33,543.611,101.833C497.778,20.886,427.969,-49.157,335.077,-54.075C234.08,-59.422,134.19,-10.531,84.435,77.522C35.375,164.346,48.725,272.583,103.355,356.015C153.087,431.967,244.292,460.229,335.077,460.309" fill="rgba(28, 83, 142, 0.4)" class="triangle-float2"></path><path d="M1492.011,1220.689C1581.557,1219.822,1682.366,1213.903,1728.288,1137.024C1774.964,1058.883,1743.336,960.374,1692.674,884.756C1648.056,818.159,1572.097,787.85,1492.011,784.359C1403.761,780.512,1308.43,792.915,1258.569,865.831C1202.897,947.245,1193.467,1059.282,1247.672,1141.679C1298.094,1218.326,1400.27,1221.578,1492.011,1220.689" fill="rgba(28, 83, 142, 0.4)" class="triangle-float3"></path><path d="M1092.2769101359124 261.5510674319157L1036.0193843367724 98.16734905492495 819.0725696708562 264.24549694213056z" fill="rgba(28, 83, 142, 0.4)" class="triangle-float1"></path><path d="M1130.0095982008656 801.2570446425344L1130.0095982008656 485.3348984408854 814.0874519992166 485.33489844088547 814.0874519992167 801.2570446425344z" fill="rgba(28, 83, 142, 0.4)" class="triangle-float2"></path><path d="M469.5927128392045 693.0646229748487L554.4318155096594 988.933735030294 850.3009275651045 904.0946323598391 765.4618248946497 608.2255203043939z" fill="rgba(28, 83, 142, 0.4)" class="triangle-float1"></path><path d="M232.296487637273 92.66227051196208L281.5049196063605 290.02651122277376 478.86916031717215 240.81807925368628 429.6607283480847 43.45383854287459z" fill="rgba(28, 83, 142, 0.4)" class="triangle-float3"></path><path d="M1477.244,923.783C1565.242,925.482,1657.04,896.017,1700.403,819.426C1743.279,743.696,1722.389,649.26,1673.388,577.341C1630.35,514.173,1553.63,494.662,1477.244,491.893C1393.964,488.875,1300.431,492.423,1254.824,562.171C1206.082,636.714,1221.868,735.225,1268.529,811.087C1312.926,883.268,1392.518,922.147,1477.244,923.783" fill="rgba(28, 83, 142, 0.4)" class="triangle-float2"></path><path d="M112.705,319.61C142.475,318.793,165.412,296.319,179.923,270.313C193.998,245.087,198.855,215.104,185.229,189.633C170.848,162.75,143.191,144.342,112.705,144.661C82.707,144.974,57.63,165.066,42.759,191.121C28.032,216.924,24.575,248.091,38.78,274.185C53.601,301.41,81.719,320.46,112.705,319.61" fill="rgba(28, 83, 142, 0.4)" class="triangle-float1"></path><path d="M455.40626868453063 69.99418694391173L365.35566154422804 2.136187219121126 308.59396552719346 171.14109779197025z" fill="rgba(28, 83, 142, 0.4)" class="triangle-float1"></path><path d="M321.62,1007.72C363.855,1009.781,410.31,1006.761,434.48,972.065C461.654,933.057,465.277,878.76,439.096,839.079C414.799,802.253,365.728,800.047,321.62,801.011C279.796,801.925,234.026,808.03,212.712,844.027C191.112,880.508,202.868,926.609,226.352,961.907C247.272,993.351,283.898,1005.879,321.62,1007.72" fill="rgba(28, 83, 142, 0.4)" class="triangle-float1"></path><path d="M618.879,323.166C652.505,322.582,685.49,310.087,703.329,281.577C722.268,251.309,723.281,213.692,707.386,181.72C689.438,145.619,659.161,113.359,618.879,111.713C576.232,109.97,536.543,136.047,516.888,173.935C498.57,209.247,506.748,251.757,529.194,284.599C548.874,313.394,584.006,323.771,618.879,323.166" fill="rgba(28, 83, 142, 0.4)" class="triangle-float3"></path><path d="M892.9712267115534 504.8366651939249L1143.353942185988 408.7237457287838 1047.241022720847 158.34103025434922 796.8583072464123 254.45394971949025z" fill="rgba(28, 83, 142, 0.4)" class="triangle-float3"></path><path d="M175.31780098513866 1030.90301695714L298.88974125735103 883.6357131938937 16.202815476375463 771.9114546671983z" fill="rgba(28, 83, 142, 0.4)" class="triangle-float1"></path></g><defs><mask id="SvgjsMask1449"><rect width="1920" height="1080" fill="#ffffff"></rect></mask><radialGradient cx="0%" cy="50%" r="1994.49" gradientUnits="userSpaceOnUse" id="SvgjsRadialGradient1450"><stop stop-color="rgba(14, 42, 71, 1)" offset="0.46"></stop><stop stop-color="rgba(31, 31, 56, 1)" offset="1"></stop></radialGradient><style>
            @keyframes float1 {
                0%{transform: translate(0, 0)}
                50%{transform: translate(-10px, 0)}
                100%{transform: translate(0, 0)}
            }

            .triangle-float1 {
                animation: float1 5s infinite;
            }

            @keyframes float2 {
                0%{transform: translate(0, 0)}
                50%{transform: translate(-5px, -5px)}
                100%{transform: translate(0, 0)}
            }

            .triangle-float2 {
                animation: float2 4s infinite;
            }

            @keyframes float3 {
                0%{transform: translate(0, 0)}
                50%{transform: translate(0, -10px)}
                100%{transform: translate(0, 0)}
            }

            .triangle-float3 {
                animation: float3 6s infinite;
            }
        </style></defs></svg>